<?xml version="1.0" standalone="no"?>
<!DOCTYPE svg PUBLIC "-//W3C//DTD SVG 20010904//EN"
 "http://www.w3.org/TR/2001/REC-SVG-20010904/DTD/svg10.dtd">
<svg version="1.0" xmlns="http://www.w3.org/2000/svg"
 width="2048.000000pt" height="2048.000000pt" viewBox="0 0 2048.000000 2048.000000"
 preserveAspectRatio="xMidYMid meet">

<g transform="translate(0.000000,2048.000000) scale(0.100000,-0.100000)"
fill="#000000" stroke="none">
<path d="M15115 14449 c-353 -26 -683 -95 -927 -193 -308 -123 -511 -257 -688
-452 -171 -188 -294 -382 -373 -589 -59 -155 -122 -434 -154 -690 -17 -130
-18 -286 -18 -2205 0 -1136 3 -2141 7 -2235 17 -384 105 -742 251 -1015 126
-237 364 -491 602 -645 254 -164 488 -252 865 -325 412 -79 923 -81 1320 -5
335 64 605 162 830 301 263 162 497 415 638 689 131 255 193 468 230 779 16
139 17 322 17 2361 0 2334 1 2276 -46 2555 -90 543 -346 976 -740 1254 -165
116 -320 193 -539 268 -357 122 -850 179 -1275 147z m406 -1467 c74 -21 165
-77 202 -126 62 -80 128 -255 146 -386 15 -108 17 -4313 2 -4437 -20 -167 -95
-354 -173 -432 -134 -132 -454 -160 -633 -56 -92 55 -163 152 -210 292 -56
168 -55 99 -55 2361 0 1439 3 2121 11 2205 14 152 46 279 90 354 46 79 132
162 202 197 115 56 277 67 418 28z"/>
<path d="M4185 14328 c-2 -7 -6 -31 -10 -53 -3 -22 -10 -60 -16 -85 -5 -25
-30 -171 -55 -325 -25 -154 -59 -350 -75 -435 -16 -85 -31 -166 -34 -180 -2
-14 -21 -126 -40 -250 -37 -233 -99 -595 -115 -665 -15 -71 -54 -298 -70 -410
-14 -101 -45 -281 -71 -408 -11 -54 -53 -295 -94 -535 -41 -240 -81 -471 -89
-512 -8 -41 -24 -136 -35 -210 -12 -74 -26 -160 -31 -190 -40 -221 -73 -405
-95 -520 -14 -74 -46 -256 -70 -405 -25 -148 -54 -319 -65 -380 -21 -113 -63
-362 -100 -590 -12 -71 -42 -240 -66 -375 -25 -135 -59 -326 -75 -425 -35
-211 -74 -433 -94 -525 -13 -63 -19 -101 -65 -385 -11 -71 -27 -164 -35 -205
-8 -42 -15 -83 -15 -93 0 -16 55 -17 924 -17 l924 0 11 88 c6 48 16 116 21
152 6 36 29 198 51 360 83 612 119 854 127 862 4 4 298 7 652 6 l645 -3 7 -40
c7 -40 51 -369 68 -500 8 -71 71 -504 113 -778 l22 -147 934 -3 933 -2 -5 50
c-5 45 -21 139 -48 278 -24 125 -30 160 -100 597 -11 69 -26 157 -35 195 -15
70 -68 372 -124 710 -17 99 -37 209 -44 245 -8 36 -20 99 -26 140 -6 41 -20
125 -31 185 -10 61 -37 220 -59 355 -22 135 -47 281 -55 325 -8 44 -26 143
-40 220 -14 77 -32 176 -40 220 -8 44 -35 199 -60 345 -25 146 -47 276 -50
290 -3 14 -19 113 -36 220 -16 107 -41 254 -54 325 -28 141 -36 190 -61 335
-9 52 -25 145 -35 205 -11 61 -26 148 -33 195 -12 77 -43 256 -96 550 -10 58
-28 168 -40 245 -21 143 -56 341 -90 520 -11 55 -26 141 -34 190 -8 50 -30
180 -50 290 -19 110 -53 304 -74 430 -22 127 -53 299 -68 383 l-27 152 -1299
0 c-1030 0 -1299 -3 -1303 -12z m1329 -1858 c36 -333 62 -552 91 -760 24 -171
70 -540 101 -810 14 -124 29 -239 99 -755 13 -99 31 -236 39 -305 44 -359 58
-467 76 -590 11 -74 20 -147 20 -162 l0 -28 -470 0 c-323 0 -470 3 -470 11 0
10 45 369 74 599 26 199 86 632 96 695 8 53 18 136 35 295 3 25 12 99 20 165
8 66 24 199 35 295 12 96 28 222 35 280 8 58 24 188 35 290 11 102 32 273 46
380 14 107 36 278 49 380 13 102 27 223 31 270 3 47 9 90 13 95 7 11 8 -2 45
-345z"/>
<path d="M8725 14328 c-3 -7 -4 -1850 -3 -4096 l3 -4083 1908 -2 1907 -2 0
748 0 747 -1000 0 -1000 0 0 3350 0 3350 -905 0 c-715 0 -907 -3 -910 -12z"/>
</g>
</svg>
